<svg width="264" height="28" viewBox="0 0 264 28" fill="none" xmlns="http://www.w3.org/2000/svg">
<g clip-path="url(#clip0)">
<rect width="264" height="28" fill="white"/>
<path d="M26.7466 19.9668L19.7519 8.49072L13.4531 18.2431L15.768 21.8452C15.9673 22.1557 16.2415 22.4111 16.5653 22.588C16.8891 22.7649 17.2522 22.8576 17.6212 22.8575H25.1263C25.4638 22.8575 25.7952 22.7675 26.0864 22.5969C26.3776 22.4262 26.618 22.1811 26.783 21.8867C26.948 21.5923 27.0316 21.2592 27.0252 20.9218C27.0188 20.5844 26.9226 20.2547 26.7466 19.9668Z" fill="#02235E"/>
<path d="M19.8001 8.56934L15.1068 0.889502C14.9407 0.617706 14.7076 0.393154 14.4297 0.237393C14.1519 0.0816311 13.8387 -0.000113985 13.5201 1.19291e-07C13.2016 0.000114224 12.8885 0.0820836 12.6107 0.238044C12.333 0.394005 12.1 0.618724 11.9341 0.890639L7.96979 7.38733L7.21203 8.65117L0.275657 20.0128C0.101452 20.2983 0.00641513 20.625 0.000313528 20.9594C-0.00578808 21.2938 0.077266 21.6238 0.240939 21.9155C0.404613 22.2072 0.643001 22.45 0.931603 22.619C1.22021 22.788 1.54861 22.8772 1.88307 22.8772H9.27747C9.68987 22.8772 10.0957 22.7736 10.4576 22.5759C10.8195 22.3783 11.126 22.0928 11.3489 21.7459L13.5301 18.3492L19.8001 8.56934Z" fill="#5AA1D8"/>
<path d="M34.123 21.7712C33.1881 21.0555 32.7207 20.0321 32.7207 18.7012C32.7207 17.3373 33.1753 16.2972 34.0846 15.5807C34.9938 14.8642 36.3162 14.5063 38.0516 14.5068C38.6886 14.5084 39.3237 14.5761 39.9467 14.709C40.5027 14.8172 41.045 14.9867 41.5637 15.2142V14.9869C41.5637 14.431 41.29 14.0099 40.7425 13.7236C40.195 13.4373 39.4328 13.2941 38.4559 13.294C37.0587 13.2789 35.6763 13.5813 34.413 14.1784V10.8432C35.1054 10.5325 35.8361 10.3157 36.586 10.1988C37.5288 10.0346 38.4843 9.95421 39.4413 9.95867C41.7824 9.95867 43.5679 10.4051 44.7979 11.2979C46.0278 12.1906 46.6426 13.454 46.6423 15.0879V22.4659H41.8677V21.5059C41.3925 21.952 40.8222 22.2844 40.1999 22.4779C39.4424 22.7299 38.6482 22.8537 37.85 22.8442C36.3002 22.8448 35.0579 22.4871 34.123 21.7712ZM40.68 19.6614C41.0271 19.5234 41.332 19.2969 41.5642 19.0043V18.0694C40.932 17.6627 40.1936 17.4518 39.4419 17.4632C39.0482 17.4387 38.6586 17.5551 38.3427 17.7915C38.2123 17.903 38.1092 18.0429 38.0413 18.2006C37.9734 18.3582 37.9425 18.5293 37.9511 18.7007C37.9439 18.8671 37.9742 19.033 38.0398 19.1861C38.1054 19.3392 38.2046 19.4755 38.3301 19.5851C38.5826 19.8041 38.9447 19.9135 39.4165 19.9134C39.8505 19.9178 40.2808 19.832 40.68 19.6614Z" fill="#02235E"/>
<path d="M48.7896 10.3382H53.6662V11.4499C54.1927 10.9655 54.8111 10.5918 55.4846 10.3507C56.205 10.0873 56.9666 9.95472 57.7336 9.95904C58.9112 9.93448 60.0759 10.2082 61.1193 10.7546C62.0798 11.2689 62.8666 12.0557 63.3809 13.016C63.9274 14.0595 64.2011 15.2243 64.1765 16.402C64.1993 17.5715 63.9256 18.7277 63.3809 19.7629C62.8649 20.7252 62.0788 21.5157 61.1193 22.037C59.4003 22.9188 57.4028 23.0868 55.5606 22.5045C54.9379 22.313 54.3556 22.009 53.8425 21.6076V28.0002H48.7896V10.3382ZM58.2522 18.2593C58.7151 17.8132 58.9467 17.1857 58.9469 16.3768C58.9469 15.5853 58.7153 14.9706 58.2522 14.5325C57.789 14.0945 57.1615 13.8754 56.3697 13.8754C55.8308 13.866 55.3005 14.0107 54.841 14.2924C54.404 14.5597 54.0566 14.9511 53.843 15.4168V17.3877C54.0565 17.8534 54.404 18.2448 54.841 18.5121C55.3005 18.7937 55.8309 18.9383 56.3697 18.9289C57.1614 18.929 57.7889 18.7058 58.2522 18.2594V18.2593Z" fill="#02235E"/>
<path d="M65.9463 10.3382H70.8232V11.4499C71.3498 10.9655 71.9681 10.5918 72.6417 10.3507C73.3621 10.0873 74.1237 9.95472 74.8906 9.95904C76.0683 9.93448 77.233 10.2082 78.2764 10.7546C79.2368 11.2689 80.0237 12.0557 80.538 13.016C81.0845 14.0595 81.3581 15.2243 81.3336 16.402C81.3563 17.5715 81.0827 18.7277 80.538 19.7629C80.0219 20.7252 79.2358 21.5157 78.2764 22.037C76.5574 22.9188 74.5599 23.0868 72.7177 22.5045C72.095 22.313 71.5126 22.009 70.9996 21.6076V28.0002H65.9463V10.3382ZM75.4089 18.2593C75.8718 17.8132 76.1034 17.1857 76.1036 16.3768C76.1036 15.5853 75.8721 14.9706 75.4089 14.5325C74.9457 14.0945 74.3182 13.8754 73.5264 13.8754C72.9876 13.866 72.4572 14.0107 71.9978 14.2924C71.5608 14.5597 71.2133 14.9511 70.9997 15.4168V17.3877C71.2132 17.8534 71.5607 18.2448 71.9978 18.5121C72.4573 18.7937 72.9876 18.9383 73.5264 18.9289C74.318 18.929 74.9456 18.7058 75.4091 18.2594L75.4089 18.2593Z" fill="#02235E"/>
<path d="M85.01 22.5672C83.9059 22.3823 83.0342 22.1128 82.3949 21.7588V18.1961C83.194 18.6445 84.0475 18.9883 84.9343 19.219C85.8168 19.4794 86.7304 19.6199 87.6504 19.6367C88.0063 19.6493 88.3626 19.6197 88.7116 19.5484C88.9303 19.4896 89.0398 19.3675 89.04 19.1819C89.04 19.0137 88.9348 18.8874 88.7242 18.803C88.3389 18.6651 87.9468 18.547 87.5494 18.4492L86.3872 18.1207C85.5398 17.8909 84.7217 17.5645 83.9488 17.148C83.4038 16.8546 82.9494 16.4177 82.6348 15.8846C82.3372 15.3031 82.1937 14.655 82.218 14.0022C82.218 12.6383 82.757 11.6234 83.8351 10.9575C84.9132 10.2916 86.3871 9.95893 88.2568 9.95947C89.228 9.96736 90.1964 10.0646 91.1498 10.2501C92.1858 10.4439 92.9564 10.7007 93.4617 11.0207V14.533C92.8093 14.141 92.1027 13.8473 91.3646 13.6612C90.5847 13.4314 89.7772 13.3081 88.9642 13.2948C87.97 13.2948 87.4731 13.4632 87.4734 13.8C87.4734 13.9516 87.5955 14.078 87.8398 14.1792C88.2555 14.3293 88.6821 14.4475 89.1157 14.533L90.1769 14.7856C91.2716 15.0722 92.1138 15.4007 92.7036 15.771C93.2326 16.0771 93.6623 16.5288 93.9418 17.0723C94.1952 17.6577 94.316 18.2919 94.2956 18.9295C94.2956 20.1258 93.7692 21.0775 92.7163 21.7846C91.6634 22.4918 90.1516 22.8455 88.1808 22.8459C87.118 22.8411 86.0574 22.7479 85.01 22.5672Z" fill="#02235E"/>
<path d="M97.6723 21.4111C97.3194 21.0731 97.041 20.6651 96.8547 20.2133C96.6684 19.7615 96.5784 19.2759 96.5905 18.7873C96.5781 18.2827 96.6676 17.7807 96.8534 17.3114C97.0393 16.842 97.3178 16.4149 97.6723 16.0556C98.0129 15.6967 98.4245 15.4127 98.8809 15.2218C99.3373 15.0308 99.8284 14.937 100.323 14.9464C100.822 14.9387 101.316 15.0332 101.777 15.2239C102.237 15.4147 102.654 15.6977 103.001 16.0556C103.362 16.4111 103.647 16.8369 103.838 17.3067C104.029 17.7765 104.121 18.2804 104.11 18.7873C104.116 19.2734 104.02 19.7554 103.829 20.2025C103.638 20.6495 103.356 21.0519 103.001 21.384C102.65 21.735 102.232 22.0117 101.772 22.1976C101.312 22.3835 100.819 22.4748 100.323 22.466C99.8331 22.4771 99.3458 22.3894 98.8904 22.2082C98.435 22.0269 98.0207 21.7559 97.6723 21.4111Z" fill="#5AA1D8"/>
<path d="M108.23 21.178C106.866 20.0663 106.184 18.4913 106.184 16.4532C106.184 14.4487 106.798 12.8653 108.028 11.7029C109.258 10.5406 111.026 9.95947 113.334 9.95947C114.816 9.95947 116.084 10.2332 117.137 10.7807C118.14 11.2809 118.971 12.0682 119.525 13.0423C120.071 14.0316 120.35 15.1464 120.333 16.2764V17.9187H110.984C111.389 18.997 112.61 19.536 114.648 19.5359C115.481 19.534 116.313 19.4706 117.137 19.3464C117.875 19.2488 118.6 19.0665 119.297 18.8031V21.9615C118.524 22.2674 117.719 22.4836 116.897 22.6057C115.92 22.7671 114.931 22.8475 113.941 22.8459C111.498 22.8457 109.594 22.2898 108.23 21.178ZM115.558 14.9876C115.528 14.7428 115.451 14.5062 115.329 14.2916C115.208 14.077 115.045 13.8886 114.85 13.7374C114.463 13.4427 113.932 13.2953 113.259 13.2951C112.586 13.2949 112.06 13.4464 111.68 13.7497C111.298 14.0579 111.049 14.5012 110.985 14.9877L115.558 14.9876Z" fill="#02235E"/>
<path d="M124.628 22.0489C123.669 21.5373 122.883 20.7552 122.366 19.8C121.819 18.7615 121.545 17.6006 121.571 16.4269C121.549 15.2536 121.822 14.0937 122.366 13.0538C122.879 12.0861 123.666 11.2909 124.628 10.7672C126.351 9.88528 128.353 9.71759 130.199 10.3004C130.822 10.4953 131.4 10.8084 131.904 11.2226V3.79346H136.957V22.4654H132.081V21.3535C131.565 21.8487 130.949 22.2278 130.275 22.4654C129.549 22.7226 128.784 22.8509 128.013 22.8443C126.836 22.869 125.671 22.5954 124.628 22.0489ZM130.906 18.5241C131.344 18.2636 131.692 17.8756 131.904 17.4119V15.4163C131.692 14.9529 131.344 14.5651 130.906 14.3044C130.444 14.0309 129.915 13.891 129.377 13.9003C128.585 13.9003 127.958 14.1235 127.495 14.5699C127.032 15.0163 126.8 15.6353 126.8 16.427C126.8 17.2191 127.032 17.8339 127.495 18.2715C127.958 18.7091 128.586 18.9281 129.377 18.9284C129.915 18.9379 130.444 18.798 130.906 18.5241Z" fill="#02235E"/>
<path d="M140.369 21.4301C139.527 20.487 139.106 19.2406 139.106 17.6907V10.3379H144.159V17.0841C144.159 18.3141 144.698 18.9289 145.777 18.9286C146.239 18.9357 146.694 18.8132 147.091 18.5748C147.488 18.3285 147.811 17.9792 148.025 17.5641V10.3379H153.104V22.4665H148.202V21.3043C147.687 21.8158 147.067 22.2082 146.384 22.4539C145.672 22.7158 144.918 22.8484 144.159 22.8455C142.475 22.8453 141.211 22.3735 140.369 21.4301Z" fill="#02235E"/>
<path d="M156.831 21.1908C155.525 20.0877 154.872 18.5 154.873 16.4278C154.873 14.3393 155.525 12.7391 156.831 11.6272C158.136 10.5153 159.918 9.95945 162.175 9.95956C163.151 9.95617 164.125 10.0536 165.081 10.2502C165.872 10.3934 166.633 10.6712 167.33 11.0714V14.9878C166.784 14.5983 166.172 14.3115 165.524 14.1414C164.812 13.946 164.076 13.8482 163.338 13.8508C162.361 13.8508 161.577 14.0656 160.988 14.4952C160.399 14.9248 160.104 15.5689 160.104 16.4273C160.104 17.2865 160.394 17.9266 160.975 18.3476C161.556 18.7687 162.336 18.9793 163.313 18.9794C164.061 18.9809 164.805 18.8788 165.524 18.6763C166.219 18.4839 166.879 18.1856 167.482 17.7919V21.6831C166.769 22.0945 165.992 22.3848 165.183 22.5422C164.186 22.7515 163.17 22.8531 162.151 22.8453C159.91 22.8456 158.136 22.2941 156.831 21.1908Z" fill="#02235E"/>
<path d="M170.02 21.7712C169.085 21.0555 168.618 20.0321 168.618 18.7012C168.618 17.3373 169.072 16.2972 169.982 15.5807C170.891 14.8642 172.213 14.5063 173.949 14.5068C174.586 14.5084 175.221 14.5761 175.844 14.709C176.4 14.8172 176.942 14.9867 177.461 15.2142V14.9869C177.461 14.431 177.187 14.0099 176.639 13.7236C176.092 13.4373 175.33 13.2941 174.353 13.294C172.956 13.2789 171.573 13.5813 170.31 14.1784V10.8432C171.002 10.5325 171.733 10.3157 172.483 10.1988C173.426 10.0346 174.381 9.95421 175.338 9.95867C177.679 9.95867 179.465 10.4051 180.695 11.2979C181.925 12.1906 182.54 13.454 182.539 15.0879V22.4659H177.764V21.5059C177.289 21.9522 176.719 22.2849 176.096 22.4786C175.339 22.7306 174.545 22.8544 173.746 22.8449C172.197 22.845 170.955 22.4871 170.02 21.7712ZM176.577 19.6614C176.924 19.5234 177.229 19.2969 177.461 19.0043V18.0694C176.829 17.6627 176.091 17.4518 175.339 17.4632C174.945 17.4387 174.556 17.5551 174.24 17.7915C174.109 17.903 174.006 18.0429 173.938 18.2006C173.87 18.3582 173.84 18.5293 173.848 18.7007C173.841 18.8671 173.871 19.033 173.937 19.1861C174.002 19.3392 174.102 19.4755 174.227 19.5851C174.48 19.8041 174.842 19.9135 175.313 19.9134C175.747 19.9178 176.178 19.832 176.577 19.6614H176.577Z" fill="#02235E"/>
<path d="M185.925 21.5315C185.117 20.6559 184.713 19.4683 184.713 17.9689V13.7492H183.045V10.3381H184.713V6.69971H189.791V10.3381H192.495V13.7492H189.791V17.2362C189.791 17.8423 189.905 18.2761 190.132 18.5374C190.36 18.7987 190.743 18.9292 191.282 18.929C191.895 18.9271 192.497 18.7614 193.025 18.449V22.1885C192.535 22.4079 192.023 22.5731 191.497 22.6812C190.834 22.802 190.161 22.857 189.488 22.8454C187.922 22.8454 186.734 22.4074 185.925 21.5315Z" fill="#02235E"/>
<path d="M195.046 8.2409C194.797 7.99947 194.6 7.70835 194.469 7.3863C194.339 7.06426 194.277 6.71843 194.288 6.37111C194.28 6.02599 194.343 5.68279 194.473 5.36316C194.603 5.04353 194.799 4.7544 195.046 4.51398C195.558 4.03295 196.235 3.76621 196.938 3.76857C197.64 3.77093 198.315 4.04219 198.824 4.52665C199.068 4.76903 199.262 5.05737 199.394 5.37505C199.527 5.69274 199.595 6.03347 199.595 6.3776C199.595 6.72174 199.527 7.06247 199.394 7.38015C199.262 7.69783 199.068 7.98618 198.824 8.22856C198.311 8.70547 197.638 8.97165 196.938 8.97399C196.238 8.97634 195.562 8.71469 195.046 8.24122V8.2409ZM194.415 10.3382H199.468V22.4668H194.414L194.415 10.3382Z" fill="#02235E"/>
<path d="M204.964 22.0236C203.875 21.5324 202.949 20.7387 202.298 19.7371C201.687 18.7366 201.363 17.5868 201.363 16.4144C201.363 15.2419 201.687 14.0921 202.298 13.0916C202.951 12.0885 203.876 11.2912 204.964 10.7924C206.118 10.2365 207.469 9.9585 209.019 9.9585C210.569 9.9585 211.925 10.2365 213.087 10.7924C214.181 11.2886 215.11 12.0862 215.766 13.0916C216.378 14.0921 216.702 15.2418 216.702 16.4144C216.702 17.5869 216.378 18.7366 215.766 19.7371C215.112 20.7411 214.182 21.535 213.087 22.0236C211.925 22.5708 210.569 22.8446 209.019 22.8449C207.47 22.8452 206.118 22.5715 204.964 22.0236ZM210.839 18.2462C211.293 17.7916 211.52 17.1768 211.52 16.4018C211.52 15.6267 211.293 15.0161 210.839 14.57C210.384 14.1238 209.778 13.9006 209.02 13.9004C208.262 13.9002 207.66 14.1234 207.213 14.57C206.767 15.0165 206.544 15.6271 206.544 16.4018C206.544 17.1765 206.767 17.7913 207.213 18.2462C207.66 18.7009 208.262 18.9282 209.02 18.9282C209.778 18.9282 210.385 18.701 210.839 18.2467V18.2462Z" fill="#02235E"/>
<path d="M218.469 10.3386H223.346V11.526C223.875 11.0165 224.502 10.6209 225.19 10.3638C225.9 10.0939 226.654 9.95688 227.414 9.95951C229.149 9.95951 230.425 10.4017 231.242 11.286C232.059 12.1704 232.467 13.3874 232.467 14.9371V22.4668H227.388V15.6447C227.388 15.0723 227.266 14.6385 227.022 14.3434C226.778 14.0482 226.386 13.9008 225.847 13.9012C224.837 13.9012 224.062 14.3559 223.523 15.2651V22.4663H218.469V10.3386Z" fill="#02235E"/>
<path d="M235.768 21.4111C235.415 21.0731 235.137 20.6651 234.95 20.2133C234.764 19.7615 234.674 19.2759 234.686 18.7873C234.674 18.2827 234.763 17.7807 234.949 17.3114C235.135 16.842 235.413 16.4149 235.768 16.0556C236.109 15.6967 236.52 15.4127 236.977 15.2218C237.433 15.0308 237.924 14.937 238.419 14.9464C238.917 14.9387 239.412 15.0332 239.872 15.2239C240.333 15.4147 240.75 15.6977 241.097 16.0556C241.458 16.4111 241.743 16.8369 241.934 17.3067C242.124 17.7765 242.217 18.2804 242.206 18.7873C242.211 19.2734 242.116 19.7554 241.925 20.2025C241.734 20.6495 241.452 21.0519 241.097 21.384C240.746 21.735 240.328 22.0117 239.868 22.1976C239.408 22.3835 238.915 22.4748 238.419 22.466C237.929 22.4771 237.442 22.3894 236.986 22.2082C236.531 22.0269 236.116 21.7559 235.768 21.4111Z" fill="#5AA1D8"/>
<path d="M245.269 13.421H243.576V10.3384H245.269V8.82238C245.269 7.18878 245.787 5.9212 246.823 5.01964C247.859 4.11809 249.202 3.66752 250.853 3.66796C251.685 3.64965 252.511 3.80447 253.279 4.12258V7.66001C252.784 7.41898 252.239 7.29778 251.688 7.30622C251.014 7.30622 250.517 7.45776 250.197 7.76084C249.877 8.06392 249.717 8.54414 249.717 9.2015V10.3381H252.521V13.4205H249.717V22.4662H245.27L245.269 13.421Z" fill="#02235E"/>
<path d="M254.264 10.338H259.14V11.6519C259.692 11.115 260.363 10.7167 261.099 10.4897C261.982 10.1954 262.909 10.0502 263.84 10.06V13.9764C262.879 13.9609 261.923 14.1061 261.01 14.4061C260.185 14.6926 259.62 15.1137 259.317 15.6694V22.4662H254.264V10.338Z" fill="#02235E"/>
</g>
<defs>
<clipPath id="clip0">
<rect width="264" height="28" fill="white"/>
</clipPath>
</defs>
</svg>
